<svg id="Layer_1" data-name="Layer 1" xmlns="http://www.w3.org/2000/svg" viewBox="0 0 504.58 365.75"><defs><style>.cls-1{fill:#f37d78;}.cls-2{fill:#f59292;}.cls-3{fill:#bdbdbd;}.cls-4{fill:#8e8f8f;}.cls-5{fill:#949595;}.cls-6{fill:#898a8a;}.cls-7{fill:#5f6161;}.cls-8{fill:#5a5b5b;}.cls-9{fill:#1874ba;}.cls-10{fill:#f9c119;}.cls-11{fill:#1774ba;}</style></defs><title>EMICHOICE</title><path class="cls-1" d="M391.1-70l-.22-.22,1.63-1.4A3.45,3.45,0,0,1,391.1-70Z" transform="translate(-30.1 71.62)"/><path class="cls-2" d="M387-57.77l-.22-.21c.47-.4.94-.8,1.4-1.21A2.12,2.12,0,0,1,387-57.77Z" transform="translate(-30.1 71.62)"/><path class="cls-3" d="M64.73,286.66l0,1.69C64,287.79,64,287.23,64.73,286.66Z" transform="translate(-30.1 71.62)"/><path class="cls-4" d="M110.12,281.88c.19-.69.73-.5,1.2-.48C111.09,282,110.58,281.88,110.12,281.88Z" transform="translate(-30.1 71.62)"/><path class="cls-5" d="M103.14,284.26c.22-.62.72-.53,1.2-.48C104.13,284.41,103.61,284.28,103.14,284.26Z" transform="translate(-30.1 71.62)"/><path class="cls-6" d="M68.81,293.64c.47,0,1-.23,1.24.44C69.57,294.11,69.05,294.29,68.81,293.64Z" transform="translate(-30.1 71.62)"/><path class="cls-7" d="M72.89,294.07c.24-.68.8-.42,1.26-.41C73.94,294.42,73.34,294,72.89,294.07Z" transform="translate(-30.1 71.62)"/><path class="cls-8" d="M52,215.12c.2-.78.8-.38,1.25-.42C53,215.37,52.45,215.12,52,215.12Z" transform="translate(-30.1 71.62)"/><path class="cls-9" d="M154.81,40.22A160,160,0,0,1,121.54,53a159.9,159.9,0,0,1-32.9,4.94C76.53,59,66.27,55.58,62.89,48.6A12.36,12.36,0,0,1,61.69,44a14.42,14.42,0,0,1,5.69-9,14.2,14.2,0,0,1,9.13-2.54,30.55,30.55,0,0,1,9-13A31.6,31.6,0,0,1,106.9,12.3c1.51,0,12.17-.06,19.31,8.46A23.84,23.84,0,0,1,131.6,34.2a32,32,0,0,1,23.21,6Z" transform="translate(-30.1 71.62)"/><path class="cls-9" d="M91,83.57,106,86l3.8,11.31L115,83.13c1.38.39,20.74,5.58,34.9-7.24a35.21,35.21,0,0,0,10.71-19.77,153.6,153.6,0,0,1-31.42,17.35A153.36,153.36,0,0,1,91,83.57Z" transform="translate(-30.1 71.62)"/><path class="cls-10" d="M41.22,47.31a28.2,28.2,0,0,0-5.07,7.13,14,14,0,0,0-1.34,4.47,10.09,10.09,0,0,0,2.59,8.16,19.84,19.84,0,0,0,8,5.16,48,48,0,0,0,9.2,2.42,74.49,74.49,0,0,0,9.17,1c3.67.18,7.33.2,11,0,2.47-.12,4.93-.25,7.38-.48,2.22-.2,4.43-.46,6.64-.76s4.7-.66,7-1.06,4.59-.86,6.88-1.33q4.31-.89,8.56-2,8-2,15.82-4.71a165,165,0,0,0,26.41-11.5,98.46,98.46,0,0,0,11.92-7.64l.27-.22s.06,0,.08,0,0,.08,0,.12a73.28,73.28,0,0,1-10,7.69,133,133,0,0,1-19.65,10.37,196.62,196.62,0,0,1-29.62,10C100.7,75.63,94.87,76.86,89,77.8c-5.1.82-10.23,1.45-15.39,1.76-1.33.08-2.66.18-4,.2-.54.1-1.09-.05-1.62.08H61.55a8.79,8.79,0,0,0-1.45,0,61.36,61.36,0,0,1-15.32-2,30.68,30.68,0,0,1-7.88-3.14,14.52,14.52,0,0,1-5.59-5.24,7.32,7.32,0,0,1-1.16-3.83.21.21,0,0,0,0-.13v-2.2A20.91,20.91,0,0,1,30.91,60a24,24,0,0,1,4.24-7,46.24,46.24,0,0,1,5.94-5.85C41.2,47.15,41.25,47.2,41.22,47.31Z" transform="translate(-30.1 71.62)"/><path class="cls-10" d="M168.72,40.82A76.15,76.15,0,0,1,156.06,50a146.55,146.55,0,0,1-25.94,12,193.68,193.68,0,0,1-22.77,6.61Q101.26,70,95.09,71q-5.55.87-11.14,1.36a127.37,127.37,0,0,1-13.81.47,70.06,70.06,0,0,1-16.49-2.12,28.48,28.48,0,0,1-8.26-3.47,12.47,12.47,0,0,1-4.92-5.4,9.93,9.93,0,0,1-.28-7,21.28,21.28,0,0,1,4.32-7.49,39.41,39.41,0,0,1,6.16-5.88l-.77.85c-.25.29-.52.57-.77.87a22,22,0,0,0-4.5,7.66,10.19,10.19,0,0,0,3.59,11.4,25.9,25.9,0,0,0,9.33,4.47,54.33,54.33,0,0,0,8.39,1.64,84.34,84.34,0,0,0,8.83.63c2.47,0,4.94.06,7.41-.08,2-.1,4-.21,5.93-.37s3.8-.36,5.7-.58c2.44-.28,4.87-.66,7.3-1s5-.9,7.53-1.41q7.36-1.53,14.6-3.63A174.57,174.57,0,0,0,153,50.29a106.58,106.58,0,0,0,13.83-8.23l1.82-1.33C168.73,40.69,168.75,40.73,168.72,40.82Z" transform="translate(-30.1 71.62)"/><path class="cls-10" d="M172.7,35.24A45.32,45.32,0,0,1,167,40a109.46,109.46,0,0,1-18.33,10.42,170.53,170.53,0,0,1-24.65,9q-7.94,2.26-16,3.8-5.46,1-11,1.7a124.6,124.6,0,0,1-18.21,1,65.74,65.74,0,0,1-15.79-2,25.33,25.33,0,0,1-8.87-4A10.22,10.22,0,0,1,50,53.51a10.65,10.65,0,0,1,.84-6.22A26.45,26.45,0,0,1,57,38.85c.89-.88,1.82-1.72,2.78-2.53a.65.65,0,0,1,.43-.24c-.69.81-1.38,1.56-2,2.36a18.34,18.34,0,0,0-3.8,7.14A9.36,9.36,0,0,0,57.12,55,19,19,0,0,0,63.63,59a44.24,44.24,0,0,0,8.93,2.31,89.79,89.79,0,0,0,16.54.89c2.7-.06,5.39-.24,8.07-.51q4.72-.46,9.42-1.2a181.62,181.62,0,0,0,28.84-6.94,151.5,151.5,0,0,0,26.13-11.14,90.58,90.58,0,0,0,10.93-7Z" transform="translate(-30.1 71.62)"/><path class="cls-10" d="M174.6,17l1.57-1.76,15.31,6.18,13.83-4.32c2.38-.71,4.29,0,4.54.89S209,20.21,207,21l-29.14,9.81a36.68,36.68,0,0,1-5.11-.29,38.88,38.88,0,0,1-5-1L181.27,25Z" transform="translate(-30.1 71.62)"/><polygon class="cls-10" points="133.75 96.72 135.18 95.54 141.46 98.78 137.6 100.35 133.75 96.72"/><path class="cls-11" d="M230.06,80.25h-7.71v-3H241v3H233.3v20.9h-3.24Z" transform="translate(-30.1 71.62)"/><path class="cls-11" d="M244.46,77.21h8.42c6.12,0,7.67,3.68,7.67,6.69a6.42,6.42,0,0,1-5.88,6.33l6.79,10.92h-4L251.32,90.6H247.7v10.55h-3.24Zm3.24,10.55H252c2.57,0,5.14-.61,5.14-3.86s-2.57-3.85-5.14-3.85H247.7Z" transform="translate(-30.1 71.62)"/><path class="cls-11" d="M272.62,77.21h2.94l10.24,23.94H282l-2.4-5.92h-11.4l-2.36,5.92h-3.79Zm5.81,15.18L274,81.4h-.07l-4.53,11Z" transform="translate(-30.1 71.62)"/><path class="cls-11" d="M284.08,77.21h3.75l7,19.47h.07l7.3-19.47h3.55l-9.43,23.94h-3Z" transform="translate(-30.1 71.62)"/><path class="cls-11" d="M308.65,77.21h15.46v3H311.9v7.14h11.36v3H311.9V98.1h12.81v3.05H308.65Z" transform="translate(-30.1 71.62)"/><path class="cls-11" d="M329.31,77.21h3.25V98.1h11v3.05H329.31Z" transform="translate(-30.1 71.62)"/><path class="cls-11" d="M347.57,96.14a6,6,0,0,0,5.07,2.57c2.13,0,4.76-1.35,4.76-4,0-5.51-11.8-2.09-11.8-11.42,0-2.81,2.37-6.7,8.12-6.7,2.6,0,5.11.54,6.9,2.74L358,81.74a5,5,0,0,0-4.26-2.1c-3.58,0-4.67,2.17-4.67,3.66,0,6,11.8,2.43,11.8,11,0,4.63-3.71,7.41-8.31,7.41-3.08,0-6-1.05-7.64-3.32Z" transform="translate(-30.1 71.62)"/><path class="cls-11" d="M375.05,77.21h3.25V98.1h11v3.05H375.05Z" transform="translate(-30.1 71.62)"/><path class="cls-11" d="M392.6,77.21h3.24v23.94H392.6Z" transform="translate(-30.1 71.62)"/><path class="cls-11" d="M401.76,77.21h4.83l7.61,18.12h.14l7.54-18.12h4.83v23.94h-3.24V81.47h-.07l-8.08,19.68h-2.17l-8.08-19.68H405v19.68h-3.24Z" transform="translate(-30.1 71.62)"/><path class="cls-11" d="M432.62,77.21h3.25v23.94h-3.25Z" transform="translate(-30.1 71.62)"/><path class="cls-11" d="M447,80.25h-7.71v-3H458v3h-7.71v20.9H447Z" transform="translate(-30.1 71.62)"/><path class="cls-11" d="M461.43,77.21h15.45v3H464.67v7.14H476v3H464.67V98.1h12.82v3.05H461.43Z" transform="translate(-30.1 71.62)"/><path class="cls-11" d="M481.54,77.21h8.35c10.11,0,12.58,7.54,12.58,12,0,6.12-4.56,12-13.12,12h-7.81Zm3.25,20.89h4.09c5.48,0,10.14-3,10.14-8.92,0-3.05-1.59-8.93-9.36-8.93h-4.87Z" transform="translate(-30.1 71.62)"/><path class="cls-11" d="M225.3,24.61h26.46v7.92H233.88v7.26h16.89v7.92H233.88v7.92h18.87v7.92H225.3Z" transform="translate(-30.1 71.62)"/><path class="cls-11" d="M259.61,24.61h13l9,25.41h.11l9-25.41h12.93V63.55H295V33.68h-.11L284.7,63.55h-6.55L268.3,33.68h-.11V63.55h-8.58Z" transform="translate(-30.1 71.62)"/><path class="cls-11" d="M311.41,24.61H320V63.55h-8.58Z" transform="translate(-30.1 71.62)"/><path class="cls-10" d="M353.27,34.73a9.18,9.18,0,0,0-7.37-3.19c-6.49,0-11.28,5.28-11.28,12.54s4.79,12.54,11,12.54a9.31,9.31,0,0,0,8-4.18l7.15,5.34c-3.24,4.62-8.74,6.76-14.08,6.76-12.15,0-21-8-21-20.46s8.86-20.46,21-20.46c4.35,0,9.85,1.48,13.15,5.72Z" transform="translate(-30.1 71.62)"/><path class="cls-10" d="M365.47,24.61h8.58V39.13h16.67V24.61h8.58V63.55h-8.58V46.72H374.05V63.55h-8.58Z" transform="translate(-30.1 71.62)"/><path class="cls-10" d="M426.13,23.62c12.15,0,21,8,21,20.46s-8.86,20.46-21,20.46-21-8-21-20.46S414,23.62,426.13,23.62Zm0,33c7.31,0,12.1-5.28,12.1-12.54s-4.79-12.54-12.1-12.54S414,36.82,414,44.08,418.81,56.62,426.13,56.62Z" transform="translate(-30.1 71.62)"/><path class="cls-10" d="M452.84,24.61h8.59V63.55h-8.59Z" transform="translate(-30.1 71.62)"/><path class="cls-10" d="M494.7,34.73a9.17,9.17,0,0,0-7.37-3.19c-6.49,0-11.28,5.28-11.28,12.54s4.79,12.54,11,12.54a9.32,9.32,0,0,0,8-4.18l7.15,5.34c-3.25,4.62-8.75,6.76-14.09,6.76-12.15,0-21-8-21-20.46s8.86-20.46,21-20.46c4.35,0,9.85,1.48,13.15,5.72Z" transform="translate(-30.1 71.62)"/><path class="cls-10" d="M507.23,24.61h26.46v7.92H515.81v7.26H532.7v7.92H515.81v7.92h18.87v7.92H507.23Z" transform="translate(-30.1 71.62)"/></svg>